<svg xmlns="http://www.w3.org/2000/svg" width="1200" height="900" viewBox="0 0 1200 900" fill="none">
  <rect width="1200" height="900" rx="32" fill="#E0F2FE"/>
  <rect x="80" y="90" width="1040" height="720" rx="24" fill="#F8FAFC"/>
  <circle cx="250" cy="220" r="56" fill="#0EA5E9" fill-opacity="0.18"/>
  <circle cx="950" cy="680" r="72" fill="#0284C7" fill-opacity="0.2"/>
  <rect x="150" y="190" width="380" height="24" rx="12" fill="#0F172A" fill-opacity="0.14"/>
  <rect x="150" y="240" width="300" height="20" rx="10" fill="#0F172A" fill-opacity="0.1"/>
  <rect x="150" y="300" width="200" height="56" rx="12" fill="#0284C7"/>
  <rect x="370" y="300" width="180" height="56" rx="12" fill="#BAE6FD"/>
  <rect x="620" y="190" width="430" height="260" rx="18" fill="#ECFEFF" stroke="#7DD3FC"/>
  <rect x="620" y="480" width="430" height="260" rx="18" fill="#F0F9FF" stroke="#BAE6FD"/>
  <rect x="655" y="230" width="280" height="16" rx="8" fill="#075985" fill-opacity="0.3"/>
  <rect x="655" y="264" width="350" height="14" rx="7" fill="#075985" fill-opacity="0.2"/>
  <rect x="655" y="518" width="280" height="16" rx="8" fill="#075985" fill-opacity="0.3"/>
  <rect x="655" y="552" width="350" height="14" rx="7" fill="#075985" fill-opacity="0.2"/>
</svg>
